<?xml version="1.0" encoding="utf-8"?>
<svg width="40px" height="40px" viewBox="0 0 40 40" version="1.1" xmlns:xlink="http://www.w3.org/1999/xlink" xmlns="http://www.w3.org/2000/svg">
  <defs>
    <linearGradient gradientUnits="objectBoundingBox" x1="0.5" y1="0.004299879" x2="0.5" y2="0.8851001" id="gradient_1">
      <stop offset="0%" stop-color="#6DC7FF" />
      <stop offset="100%" stop-color="#E6ABFF" />
    </linearGradient>
    <linearGradient gradientUnits="objectBoundingBox" x1="0.5000025" y1="-0.07339924" x2="0.5000025" y2="0.8868293" id="gradient_2">
      <stop offset="0%" stop-color="#1A6DFF" />
      <stop offset="100%" stop-color="#C822FF" />
    </linearGradient>
    <linearGradient gradientUnits="objectBoundingBox" x1="0.5" y1="-0.75750005" x2="0.5" y2="4.0347004" id="gradient_3">
      <stop offset="0%" stop-color="#1A6DFF" />
      <stop offset="100%" stop-color="#C822FF" />
    </linearGradient>
    <linearGradient gradientUnits="objectBoundingBox" x1="0.5" y1="-3.9575002" x2="0.5" y2="0.8347001" id="gradient_4">
      <stop offset="0%" stop-color="#1A6DFF" />
      <stop offset="100%" stop-color="#C822FF" />
    </linearGradient>
    <path d="M40 0L40 0L40 40L0 40L0 0L40 0Z" id="path_1" />
    <clipPath id="clip_1">
      <use xlink:href="#path_1" />
    </clipPath>
  </defs>
  <g id="Connect" clip-path="url(#clip_1)">
    <path d="M40 0L40 0L40 40L0 40L0 0L40 0Z" id="Connect" fill="none" stroke="none" />
    <path d="M6.875 20C6.875 18.2741 8.27411 16.875 10 16.875C11.7259 16.875 13.125 18.2741 13.125 20C13.125 21.7259 11.7259 23.125 10 23.125C8.27411 23.125 6.875 21.7259 6.875 20Z" id="Circle" fill="url(#gradient_1)" fill-rule="evenodd" stroke="none" />
    <g id="Group" transform="translate(4.375 4.430079)">
      <path d="M29.6025 21.5924C27.8744 19.8655 25.2956 19.5049 23.2056 20.4987L22.5319 19.8249C21.9775 19.2712 21.1031 19.1568 20.4088 19.4699L16.7994 15.8605C16.69 15.7512 16.5675 15.6605 16.4463 15.5699C16.5681 15.4793 16.6906 15.3887 16.7994 15.2793L20.3494 11.7293C20.6031 11.8499 20.8762 11.9174 21.1519 11.9174C21.6325 11.9174 22.1125 11.7343 22.4781 11.3687L23.1506 10.6962C23.8981 11.0537 24.7194 11.2487 25.5719 11.2487C27.0738 11.2487 28.4869 10.663 29.5488 9.60055C31.7419 7.40742 31.7419 3.83867 29.5488 1.64555C27.3556 -0.547578 23.7869 -0.549453 21.5938 1.64555C20.5312 2.70742 19.9456 4.12055 19.9456 5.62242C19.9456 6.47555 20.1406 7.2968 20.4981 8.0443L19.8256 8.71617C19.25 9.2918 19.135 10.1487 19.465 10.8449L15.915 14.3949C15.5613 14.7499 15.0906 14.9449 14.5894 14.9449L13.635 14.9449C13.3763 14.2193 12.6888 13.6949 11.875 13.6949L10.9219 13.6949C10.1475 11.5137 8.06875 9.94492 5.625 9.94492C2.52313 9.94492 0 12.468 0 15.5699C0 18.6718 2.52313 21.1949 5.625 21.1949C8.06875 21.1949 10.1475 19.6262 10.9219 17.4449L11.875 17.4449C12.6888 17.4449 13.3763 16.9205 13.635 16.1949L14.5894 16.1949C15.0906 16.1949 15.5619 16.3905 15.9156 16.7443L19.5181 20.3468C19.3994 20.5955 19.3306 20.8668 19.3306 21.1505C19.3306 21.6518 19.5263 22.123 19.88 22.4762L20.5538 23.1499C19.5594 25.2399 19.9194 27.8193 21.6475 29.5474C22.7444 30.6437 24.185 31.1918 25.625 31.1918C27.065 31.1918 28.5056 30.6437 29.6025 29.5474C31.7956 27.3537 31.7956 23.7862 29.6025 21.5924L29.6025 21.5924ZM22.4781 2.52992C23.3306 1.67742 24.4513 1.25055 25.5713 1.25055C26.6919 1.25055 27.8125 1.67742 28.665 2.52992C30.3706 4.23555 30.3706 7.01117 28.665 8.7168C27.8388 9.54305 26.74 9.99867 25.5719 9.99867C24.4031 9.99867 23.3044 9.54305 22.4781 8.7168C21.6519 7.89055 21.1963 6.7918 21.1963 5.62305C21.1963 4.45492 21.6519 3.35617 22.4781 2.52992L22.4781 2.52992ZM21.5944 9.60055C21.7431 9.7493 21.9006 9.8868 22.0625 10.0168L21.5944 10.4849C21.3575 10.7212 20.9469 10.7205 20.71 10.4849C20.4662 10.2405 20.4662 9.84492 20.71 9.60055L21.1787 9.13242C21.3081 9.2943 21.4456 9.4518 21.5944 9.60055L21.5944 9.60055ZM5.625 19.9449C3.21312 19.9449 1.25 17.9818 1.25 15.5699C1.25 13.158 3.21312 11.1949 5.625 11.1949C8.03688 11.1949 10 13.158 10 15.5699C10 17.9818 8.03687 19.9449 5.625 19.9449L5.625 19.9449ZM11.875 16.1949L11.2131 16.1949C11.2363 15.9893 11.25 15.7812 11.25 15.5699C11.25 15.3587 11.2363 15.1505 11.2131 14.9449L11.875 14.9449C12.22 14.9449 12.5 15.2249 12.5 15.5699C12.5 15.9149 12.22 16.1949 11.875 16.1949L11.875 16.1949ZM20.7638 21.5918C20.6456 21.4743 20.5806 21.318 20.5806 21.1505C20.5806 20.9837 20.6456 20.8268 20.7638 20.7087C21.0013 20.473 21.4113 20.4724 21.6475 20.7087L22.1156 21.1768C21.9544 21.3062 21.7969 21.443 21.6475 21.5924C21.4981 21.7418 21.3613 21.8987 21.2319 22.0605L20.7638 21.5918L20.7638 21.5918ZM28.7188 28.6637C27.0131 30.3693 24.2369 30.3693 22.5313 28.6637C20.8256 26.958 20.8256 24.1818 22.5313 22.4762C24.2375 20.7705 27.0138 20.7705 28.7188 22.4762C30.4244 24.1818 30.4244 26.958 28.7188 28.6637L28.7188 28.6637Z" id="Shape" fill="url(#gradient_2)" fill-rule="evenodd" stroke="none" />
      <path d="M25.625 8.69492C26.46 8.69492 27.245 8.3693 27.8344 7.7793C28.4244 7.18992 28.75 6.40492 28.75 5.56992C28.75 4.73492 28.4244 3.94992 27.8344 3.36055C27.245 2.77055 26.46 2.44492 25.625 2.44492C24.79 2.44492 24.005 2.77055 23.4156 3.36055C22.8256 3.94992 22.5 4.73492 22.5 5.56992C22.5 6.40492 22.8256 7.1893 23.4156 7.7793C24.0056 8.3693 24.79 8.69492 25.625 8.69492L25.625 8.69492ZM24.2994 4.2443C24.6531 3.89055 25.1238 3.69492 25.625 3.69492C26.1262 3.69492 26.5969 3.89055 26.9506 4.2443C27.3044 4.59805 27.5 5.06867 27.5 5.56992C27.5 6.07117 27.3044 6.5418 26.9506 6.89555C26.2425 7.60367 25.0075 7.60367 24.2994 6.89555C23.9456 6.5418 23.75 6.07117 23.75 5.56992C23.75 5.06867 23.9456 4.59805 24.2994 4.2443L24.2994 4.2443Z" id="Shape" fill="url(#gradient_3)" fill-rule="evenodd" stroke="none" />
      <path d="M27.8344 23.3605C27.245 22.7705 26.46 22.4449 25.625 22.4449C24.79 22.4449 24.0056 22.7705 23.4156 23.3605C22.8256 23.9505 22.5 24.7349 22.5 25.5699C22.5 26.4049 22.8256 27.1899 23.4156 27.7793C24.005 28.3693 24.79 28.6949 25.625 28.6949C26.46 28.6949 27.245 28.3693 27.8344 27.7793C28.4244 27.1899 28.75 26.4049 28.75 25.5699C28.75 24.7349 28.4244 23.9499 27.8344 23.3605L27.8344 23.3605ZM26.9506 26.8955C26.2425 27.6037 25.0075 27.6037 24.2994 26.8955C23.9456 26.5418 23.75 26.0712 23.75 25.5699C23.75 25.0687 23.9456 24.598 24.2994 24.2443C24.6531 23.8906 25.1238 23.6949 25.625 23.6949C26.1262 23.6949 26.5969 23.8905 26.9506 24.2443C27.3044 24.5981 27.5 25.0687 27.5 25.5699C27.5 26.0712 27.305 26.5418 26.9506 26.8955L26.9506 26.8955Z" id="Shape" fill="url(#gradient_4)" fill-rule="evenodd" stroke="none" />
    </g>
  </g>
</svg>